<svg width="32" height="32" viewBox="0 0 32 32" fill="none" xmlns="http://www.w3.org/2000/svg">
  <circle cx="16" cy="16" r="16" fill="#00B45A"/>
  <path fill-rule="evenodd" clip-rule="evenodd" d="M9.25 8.5H20.75V11.4H12.15V20.05C12.15 21.3 12.62 22.45 13.47 23.34L11.05 21.68C9.9 20.89 9.25 19.66 9.25 18.27V8.5Z" fill="white"/>
  <path fill-rule="evenodd" clip-rule="evenodd" d="M13.55 12.95H23V19.21C23 21.34 21.91 23.32 20.12 24.47L16.28 26.95L12.45 24.47C10.66 23.31 9.56 21.32 9.56 19.19V12.95H13.55ZM14.32 15.85V19.19C14.32 20.34 14.91 21.42 15.88 22.05L16.28 22.31L16.69 22.05C17.65 21.43 18.24 20.36 18.24 19.21V15.85H14.32Z" fill="white"/>
</svg>
