<svg width="256" height="256" xmlns="http://www.w3.org/2000/svg">
  <defs>
    <linearGradient x1="-21.268%" y1="0%" x2="88.876%" y2="77.079%" id="a">
      <stop offset="0%" />
      <stop stop-opacity="0" offset="100%" />
    </linearGradient>
  </defs>
  <g fill="none" fill-rule="evenodd">
    <path fill="#9013FE" d="M0 0h256v256H0z" />
    <circle fill="#9013FE" cx="127.618" cy="127.618" r="127.618" />
    <path fill="url(#a)" d="M126.249 53c9.865 0 19.075 1.05 27.63 3.148 7.432 1.824 14.05 4.553 19.854 8.187L256 111.833V256h-87.285l-91.698-52.942.001-.058H77V53z" />
    <path fill="#FFF" d="M126.249 53c9.865 0 19.075 1.05 27.63 3.148 8.555 2.1 16.03 5.398 22.427 9.895 6.397 4.498 11.445 10.383 15.145 17.654 3.7 7.272 5.549 16.08 5.549 26.424 0 10.345-1.85 19.153-5.55 26.425-3.699 7.271-8.747 13.156-15.144 17.653-6.397 4.498-13.872 7.797-22.427 9.895-8.555 2.1-17.765 3.149-27.63 3.149V203H77V53zm3.001 39H127v35h2.25c7 0 12.042-1.537 15.125-4.611 3.083-3.075 4.625-7.371 4.625-12.889 0-5.518-1.542-9.814-4.625-12.889C141.292 93.537 136.25 92 129.25 92z" />
  </g>
</svg>
