<?xml version="1.0" encoding="UTF-8"?>
<svg xmlns="http://www.w3.org/2000/svg" width="130" height="130" viewBox="0 0 130 130" fill="none">
  <rect width="130" height="130" rx="10" fill="#14217E"></rect>
  <g clip-path="url(#clip0_3_25)">
    <path fill-rule="evenodd" clip-rule="evenodd" d="M20 65.0001C20 40.1472 40.1472 20.0001 65 20.0001C89.8529 20.0001 110 40.1472 110 65.0001C110 89.8528 89.8528 110 65 110C40.1472 110 20 89.8528 20 65.0001ZM65 28.2192C44.6865 28.2192 28.2191 44.6865 28.2191 65.0001C28.2191 85.3134 44.6865 101.781 65 101.781C85.3136 101.781 101.781 85.3134 101.781 65.0001C101.781 44.6865 85.3135 28.2192 65 28.2192Z" fill="white"></path>
    <path d="M61.8824 90.88H68.0334V80.0728H61.8824V90.88Z" fill="white"></path>
    <path fill-rule="evenodd" clip-rule="evenodd" d="M68.0333 44.3715V39.3488H61.8823V44.3H50.7145V85.394H58.1589V70.345H65.7339L73.8098 85.394H82.117L73.2287 69.125C73.4961 69.0171 73.7567 68.902 74.0106 68.7798C76.1776 67.723 77.8162 66.2316 78.9267 64.3053C80.0502 62.3655 80.612 60.078 80.612 57.4429C80.612 54.8208 80.0568 52.5268 78.9466 50.5603C77.8497 48.5806 76.2245 47.0424 74.0708 45.9454C72.3767 45.0772 70.3642 44.5525 68.0333 44.3715ZM58.1589 64.1648H65.0211C66.8672 64.1648 68.3788 63.9106 69.556 63.4022C70.7333 62.8807 71.6027 62.1247 72.1645 61.1349C72.7396 60.1317 73.0273 58.901 73.0273 57.4429C73.0273 55.9847 72.7396 54.7407 72.1645 53.7106C71.5893 52.6674 70.7131 51.8781 69.5359 51.343C68.3586 50.7946 66.8405 50.5202 64.9811 50.5202H58.1589V64.1648Z" fill="white"></path>
  </g>
  <defs>
    <clipPath id="clip0_3_25">
      <rect width="90" height="89.9998" fill="white" transform="translate(20 20.0001)"></rect>
    </clipPath>
  </defs>
</svg>
