<svg id="icon" width="85" height="22" viewBox="0 0 85 22" fill="none" xmlns="http://www.w3.org/2000/svg">
<path d="M13.7135 19.9065L11.5416 0.164946C11.5304 0.0704263 11.4519 0 11.3566 0H10.1959C10.1005 0 10.0202 0.0704263 10.0108 0.164946L7.83896 19.9065C7.82588 20.0214 7.91933 20.1178 8.03521 20.1104C8.91929 20.0492 9.83514 20.0159 10.7753 20.0159C11.7154 20.0159 12.6331 20.0492 13.5154 20.1104C13.6312 20.1178 13.7247 20.0214 13.7116 19.9065H13.7135Z" fill="#D9BC82"/>
<path d="M6.91346 5.93063H5.76398C5.68548 5.93063 5.61445 5.98067 5.58829 6.05481L0.0109565 21.7525C-0.0451158 21.9118 0.12497 22.0582 0.272628 21.9767C1.44454 21.3447 3.06877 20.8425 4.98644 20.5052C5.06681 20.4903 5.12849 20.4273 5.13971 20.3495L7.0985 6.14006C7.11346 6.02886 7.02748 5.93063 6.91346 5.93063Z" fill="#D9BC82"/>
<path d="M15.7885 5.93063H14.639C14.5268 5.93063 14.439 6.02886 14.4539 6.14006L16.4127 20.3495C16.4239 20.4292 16.4856 20.4922 16.566 20.5052C18.4855 20.8425 20.1098 21.3447 21.2798 21.9767C21.4293 22.0564 21.5994 21.91 21.5415 21.7525L15.9641 6.05295C15.938 5.97882 15.867 5.92878 15.7885 5.92878V5.93063Z" fill="#D9BC82"/>
<path d="M40.5645 17.4492C40.4946 17.2805 40.4033 16.8181 40.3751 16.0662L40.2838 13.9874C40.2435 13.1371 40.0569 12.4568 39.7278 11.9663C39.5022 11.6318 39.2081 11.3535 38.8523 11.137C39.2592 10.8447 39.6056 10.4736 39.8809 10.0323C40.2704 9.40967 40.4691 8.66897 40.4691 7.82847C40.4691 6.50026 40.0448 5.45878 39.2081 4.73494C38.4024 4.02656 37.3079 3.66675 35.957 3.66675H30.208V17.9299H32.8656V12.4357H35.5326C36.2242 12.4357 36.7399 12.5805 37.0635 12.8658C37.3684 13.1244 37.5403 13.584 37.5725 14.232L37.6638 16.0915C37.688 16.7408 37.7686 17.2819 37.9015 17.6994L37.9754 17.9285H40.6168V17.6741C40.6168 17.6263 40.6101 17.5771 40.5967 17.5307C40.5886 17.5026 40.5779 17.4759 40.5658 17.4464L40.5645 17.4492ZM32.8656 6.08845H35.6991C36.3854 6.08845 36.9131 6.26695 37.2717 6.61973C37.6316 6.96548 37.8129 7.45039 37.8129 8.06178C37.8129 8.67318 37.6302 9.15668 37.2676 9.50665C36.9131 9.85803 36.3854 10.0351 35.6991 10.0351H32.8656V6.08704V6.08845Z" fill="#FAFAFA"/>
<path d="M46.1456 3.66675H43.4893V17.9299H46.1456V3.66675Z" fill="#FAFAFA"/>
<path d="M55.139 12.0239H55.143C54.9201 12.7098 54.7052 13.421 54.5052 14.1448C54.2728 13.3029 54.0217 12.4821 53.7558 11.6992L51.1546 3.89725L51.0807 3.66815H48.305L53.1314 17.7134L53.2106 17.9299H55.7057L60.661 4.12213L60.8195 3.66675H57.9269L55.139 12.0225V12.0239Z" fill="#FAFAFA"/>
<path d="M62.9842 17.9313H71.8608V15.4899H65.6405V11.7766H71.4902V9.33799H65.6405V6.10812H71.8608V3.66675H62.9842V17.9313Z" fill="#FAFAFA"/>
<path d="M84.9112 17.5321C84.9031 17.504 84.891 17.4759 84.8803 17.4492C84.8104 17.2805 84.7191 16.8167 84.6909 16.0662L84.5996 13.9874C84.5593 13.1371 84.3727 12.4568 84.0437 11.9663C83.818 11.6318 83.5239 11.3535 83.1681 11.137C83.575 10.8447 83.9214 10.4736 84.1981 10.0323C84.5889 9.40967 84.7863 8.66897 84.7863 7.82847C84.7863 6.50026 84.3619 5.45878 83.5253 4.73494C82.7182 4.02656 81.6237 3.66675 80.2728 3.66675H74.5238V17.9299H77.1814V12.4357H79.8484C80.54 12.4357 81.0557 12.5805 81.3793 12.8658C81.6855 13.1244 81.8561 13.584 81.8883 14.232L81.9796 16.0915C82.0038 16.7408 82.0844 17.2805 82.2173 17.6994L82.2912 17.9285H84.9327V17.6741C84.9327 17.6249 84.9259 17.5771 84.9125 17.5307L84.9112 17.5321ZM77.1801 6.08845H80.0136C80.6998 6.08845 81.2276 6.26695 81.5861 6.61973C81.946 6.96548 82.1273 7.45039 82.1273 8.06178C82.1273 8.67318 81.9447 9.15668 81.5821 9.50665C81.2276 9.85803 80.6998 10.0351 80.0136 10.0351H77.1801V6.08704V6.08845Z" fill="#FAFAFA"/>
</svg>
