<svg viewBox="0 0 1024 1024" fill="none" xmlns="http://www.w3.org/2000/svg">
  <style>
    .swan-favicon-background { fill: #FBFBFB }
    .swan-favicon-icon { fill: #00305E }
    @media (prefers-color-scheme: dark) {
      .swan-favicon-background { fill: none }
      .swan-favicon-icon { fill: #FBFBFB }
    }
  </style>
  <circle class="swan-favicon-background" fill="#FBFBFB" cx="512" cy="512" r="512" />
  <path class="swan-favicon-icon" fill="#00305E" fill-rule="evenodd" d="M411.624 1013.98c277.279 55.4 546.957-124.438 602.356-401.652 55.39-277.23-124.446-546.9222-401.709-602.309C335.073-45.3709 65.3957 134.481 10.032 411.726c-55.43 277.199 124.426 546.859 401.592 602.254Zm222.28-746.207c86.637 25.375 151.062 66.499 142.677 149.043-6.035 60.421-37.897 91.037-81.532 103.301 62.066 28.713 95.176 75.674 69.769 160.989-31.527 105.958-117.69 118.838-233.854 102.458l-22.657 113.411-68.314-13.66 22.362-111.892c-17.706-3.526-35.808-7.302-54.468-11.438l-22.433 112.417-68.237-13.664 22.646-113.623c-6.379-1.318-12.8-2.675-19.266-4.041-9.712-2.052-19.526-4.126-29.456-6.125l-88.9-17.782 29.871-78.947s50.375 10.898 49.656 9.948c19.339 3.834 27.231-9.04 30.185-17.514l61.426-307.745c.15-14.4-5.647-32.281-33.316-37.825 1.024-.762-49.614-9.892-49.614-9.892l14.557-73.035 94.214 18.882-.06.35c14.164 2.824 28.743 5.455 43.594 8.112l22.439-112.302 68.276 13.662-21.984 110.1c18.311 3.284 36.738 6.602 54.697 10.192l21.826-109.378 68.314 13.659-22.418 112.339ZM439.319 680.418c55.78 11.967 177.692 38.124 193.203-39.781 15.903-79.658-102.111-100.381-159.697-110.492-6.435-1.13-12.115-2.128-16.77-3.06l-30.061 150.533c3.823.761 8.306 1.723 13.325 2.8Zm41.699-219.86c46.512 10.105 147.968 32.145 162.12-38.664 14.447-72.426-83.952-89.413-132.007-97.709-5.406-.933-10.175-1.756-14.074-2.536l-27.252 136.529c3.213.642 6.986 1.462 11.213 2.38Z" clip-rule="evenodd"/>
</svg>